<svg width="456" height="303" viewBox="0 0 456 303" fill="none" xmlns="http://www.w3.org/2000/svg">
<g clip-path="url(#clip0_31_62)">
<path d="M6.06419 23.2732H124.516C126.123 23.275 127.665 23.8995 128.802 25.0099C129.939 26.1203 130.578 27.6258 130.58 29.1961V200.746C130.578 202.316 129.939 203.821 128.802 204.932C127.665 206.042 126.123 206.667 124.516 206.668H6.06419C4.4564 206.667 2.915 206.042 1.77812 204.932C0.641246 203.821 0.0017464 202.316 -6.10352e-05 200.746V29.196C0.00175637 27.6257 0.641256 26.1203 1.77813 25.0099C2.915 23.8995 4.45641 23.275 6.06419 23.2732Z" fill="#F2F2F2"/>
<path d="M7.53433 27.5806H123.046C123.874 27.5815 124.668 27.9032 125.254 28.4752C125.839 29.0472 126.169 29.8228 126.17 30.6317V199.31C126.169 200.119 125.839 200.894 125.254 201.466C124.668 202.038 123.874 202.36 123.046 202.361H7.53433C6.70608 202.36 5.91201 202.038 5.32635 201.466C4.74069 200.894 4.41126 200.119 4.41034 199.31V30.6317C4.41126 29.8228 4.74069 29.0472 5.32635 28.4752C5.91201 27.9032 6.70608 27.5815 7.53433 27.5806Z" fill="white"/>
<path d="M87.8071 90.5824C87.8071 101.426 77.5409 99.786 64.877 99.786C52.213 99.786 41.9468 101.426 41.9468 90.5824C41.9468 79.7385 46.9616 60.5171 64.877 60.5171C83.4096 60.5171 87.8071 79.7385 87.8071 90.5824Z" fill="#2F2E41"/>
<path d="M114.782 182.372C115.241 181.52 115.504 180.579 115.55 179.616C115.597 178.654 115.427 177.693 115.053 176.801C114.678 175.91 114.108 175.109 113.383 174.456C112.657 173.803 111.794 173.313 110.854 173.022L84.5838 118.745L72.5671 126.975L102.168 177.739C101.771 179.314 101.979 180.977 102.753 182.413C103.527 183.848 104.813 184.957 106.368 185.528C107.923 186.099 109.638 186.093 111.189 185.511C112.74 184.93 114.018 183.813 114.782 182.372Z" fill="#A0616A"/>
<path d="M91.9227 123.513L90.4212 121.218L89.6549 120.04L83.7558 111.008C82.8475 109.026 81.1714 107.475 79.0949 106.698C77.0184 105.92 74.7109 105.978 72.6781 106.859C70.6453 107.74 69.053 109.372 68.2503 111.398C67.4475 113.424 67.4998 115.677 68.3956 117.666L69.7465 122.372L72.5042 131.993C72.6716 132.585 73.0281 133.109 73.522 133.49C73.709 133.643 73.916 133.771 74.1376 133.87C74.5235 134.048 74.9438 134.144 75.3705 134.152C75.7972 134.159 76.2207 134.078 76.6128 133.913C76.6254 133.907 76.6444 133.901 76.657 133.895L83.7935 130.778L83.8061 130.772L89.2528 128.391L90.6098 127.802C90.999 127.633 91.3461 127.384 91.6276 127.072C91.9258 126.75 92.1448 126.366 92.2681 125.949C92.3955 125.543 92.4306 125.114 92.3709 124.694C92.3113 124.273 92.1583 123.87 91.9227 123.513Z" fill="#CCCCCC"/>
<path d="M54.2731 200.468C54.0062 200.035 53.6304 199.677 53.1815 199.426C52.7325 199.176 52.2253 199.041 51.7083 199.037C51.1912 199.032 50.6815 199.156 50.2276 199.398C49.7738 199.64 49.3909 199.991 49.1154 200.419C48.9964 200.594 48.9014 200.784 48.8329 200.983L48.4746 201.947H55.1842L54.2731 200.468Z" fill="#2F2E41"/>
<path d="M64.7326 99.1636C73.2542 99.1636 80.1624 92.4165 80.1624 84.0935C80.1624 75.7705 73.2542 69.0234 64.7326 69.0234C56.2109 69.0234 49.3027 75.7705 49.3027 84.0935C49.3027 92.4165 56.2109 99.1636 64.7326 99.1636Z" fill="#A0616A"/>
<path d="M91.7782 128.667C91.7405 128.127 91.6902 127.593 91.6276 127.072C91.4047 125.089 91.0009 123.13 90.4212 121.218C90.3018 120.801 90.1699 120.396 90.0254 119.997C88.1884 114.71 84.9963 109.97 80.753 106.229C79.073 104.758 76.8963 103.945 74.6404 103.946H52.9038C51.569 103.946 50.2504 104.231 49.0403 104.781C47.8301 105.331 46.7575 106.132 45.8976 107.129C45.0377 108.126 44.4113 109.295 44.0621 110.553C43.7129 111.811 43.6494 113.129 43.8761 114.414C43.8697 114.42 43.8697 114.42 43.8761 114.426C44.0295 115.284 44.311 116.115 44.7117 116.893L45.5912 118.604L51.4838 130.115L58.8151 144.436L59.2425 145.27L86.5641 152.609L86.6769 152.357C86.7776 152.136 86.8843 151.909 86.9785 151.688C87.1294 151.357 87.2739 151.026 87.4184 150.701C89.8517 145.295 91.3301 139.525 91.7908 133.637V133.631C91.8936 131.978 91.8894 130.32 91.7782 128.667Z" fill="#3F3D56"/>
<path d="M87.4184 150.701C87.3256 150.388 87.179 150.094 86.985 149.829C86.2815 148.91 85.4407 148.099 84.4908 147.424L84.4847 147.418C81.1739 144.964 74.6027 142.104 61.9063 142.031H61.8873C61.3055 142.031 60.7361 142.195 60.247 142.503C59.758 142.811 59.37 143.25 59.1293 143.767L58.8152 144.436L56.7925 148.78C56.62 149.152 56.3489 149.472 56.0072 149.707C52.7971 151.928 37.2485 164.383 46.3765 191.73C47.2685 194.4 48.1857 197.314 49.1155 200.419C49.2664 200.922 49.4172 201.431 49.5679 201.947H76.9334L76.349 197.651C76.3101 197.371 76.3251 197.086 76.3932 196.811L87.4058 152.425L87.4562 152.235C87.5821 151.729 87.569 151.2 87.4184 150.701Z" fill="#2F2E41"/>
<path d="M96.0062 101.013H107.942C108.442 101.013 108.922 101.207 109.275 101.552C109.629 101.898 109.827 102.366 109.827 102.854V105.922C109.994 105.922 110.153 105.987 110.271 106.102C110.388 106.217 110.455 106.373 110.455 106.535V107.763C110.455 107.925 110.388 108.081 110.271 108.196C110.153 108.311 109.994 108.376 109.827 108.376V109.603C109.994 109.604 110.153 109.669 110.271 109.784C110.388 109.898 110.455 110.054 110.455 110.217V111.444C110.455 111.607 110.388 111.762 110.271 111.877C110.153 111.992 109.994 112.057 109.827 112.058V128.624C109.827 129.112 109.629 129.581 109.275 129.926C108.922 130.271 108.442 130.465 107.942 130.465H96.0062C95.5064 130.465 95.027 130.271 94.6735 129.926C94.3201 129.581 94.1215 129.112 94.1215 128.624V102.854C94.1215 102.366 94.3201 101.898 94.6735 101.552C95.027 101.207 95.5064 101.013 96.0062 101.013Z" fill="#3F3D56"/>
<path d="M95.3779 128.624V102.854C95.3779 102.366 95.5765 101.898 95.9299 101.552C96.2834 101.207 96.7627 101.013 97.2626 101.013H96.0061C95.5063 101.013 95.0269 101.207 94.6735 101.552C94.3201 101.898 94.1215 102.366 94.1215 102.854V128.624C94.1215 129.112 94.3201 129.581 94.6735 129.926C95.0269 130.271 95.5063 130.465 96.0061 130.465H97.2626C96.7627 130.465 96.2834 130.271 95.9299 129.926C95.5765 129.581 95.3779 129.112 95.3779 128.624Z" fill="#4A66F8"/>
<path d="M101.66 112.058C103.048 112.058 104.173 110.959 104.173 109.603C104.173 108.248 103.048 107.149 101.66 107.149C100.272 107.149 99.1473 108.248 99.1473 109.603C99.1473 110.959 100.272 112.058 101.66 112.058Z" fill="white"/>
<path d="M98.4718 118.201C98.2678 118.476 98.0862 118.766 97.9288 119.069L66.9956 122.699L62.4467 116.79L52.4198 122.33L59.4319 133.554C59.9984 134.46 60.8507 135.163 61.861 135.557C62.8712 135.95 63.9849 136.013 65.0347 135.735L99.2498 126.694C100.222 127.593 101.452 128.182 102.775 128.382C104.098 128.582 105.453 128.384 106.658 127.814C107.864 127.244 108.863 126.329 109.523 125.191C110.183 124.053 110.472 122.746 110.353 121.443C110.233 120.14 109.711 118.904 108.854 117.899C107.998 116.893 106.849 116.166 105.559 115.814C104.269 115.462 102.9 115.502 101.634 115.928C100.368 116.355 99.2652 117.148 98.4718 118.201Z" fill="#A0616A"/>
<path d="M66.7373 118.917L58.0677 107.947C57.1002 106.256 55.5136 104.985 53.6265 104.39C51.7395 103.795 49.6918 103.92 47.8947 104.739C46.0977 105.558 44.6846 107.01 43.9391 108.805C43.1937 110.6 43.1712 112.603 43.8762 114.414C43.8698 114.42 43.8698 114.42 43.8762 114.426C44.0054 114.76 44.1608 115.084 44.3409 115.395L45.5912 118.604L49.3919 128.391C49.5355 128.762 49.7599 129.099 50.0495 129.377C50.3391 129.656 50.6871 129.87 51.0695 130.005C51.2042 130.053 51.3428 130.09 51.4839 130.115C52.1422 130.246 52.8269 130.142 53.4127 129.821L56.1643 128.317L65.8766 123.016C66.23 122.82 66.5366 122.553 66.776 122.233C67.0154 121.912 67.1821 121.545 67.265 121.157C67.3465 120.768 67.3416 120.367 67.2506 119.981C67.1596 119.595 66.9845 119.232 66.7373 118.917Z" fill="#3F3D56"/>
<path d="M46.9725 86.9008H53.0753L55.7677 77.8387L56.306 86.9008H59.2229L60.7935 81.6146L61.1076 86.9008H82.7813C82.7813 76.057 75.4684 67.2664 66.4475 67.2664H63.3063C54.2854 67.2664 46.9725 76.057 46.9725 86.9008Z" fill="#2F2E41"/>
<path d="M225.939 75.3815H98.0396C96.4318 75.3797 94.8904 74.7551 93.7535 73.6447C92.6166 72.5344 91.9771 71.0289 91.9753 69.4586V5.92286C91.9771 4.35256 92.6166 2.84708 93.7535 1.73671C94.8904 0.626345 96.4318 0.00176529 98.0396 0H225.939C227.547 0.00176367 229.089 0.626345 230.225 1.73671C231.362 2.84708 232.002 4.35256 232.004 5.92286V69.4586C232.002 71.0289 231.362 72.5344 230.225 73.6448C229.089 74.7551 227.547 75.3797 225.939 75.3815Z" fill="#CCCCCC"/>
<path d="M224.469 71.074H99.5097C98.6814 71.0731 97.8874 70.7514 97.3017 70.1794C96.716 69.6074 96.3866 68.8318 96.3857 68.0229V7.35877C96.3866 6.54983 96.716 5.77428 97.3017 5.20227C97.8874 4.63027 98.6814 4.30852 99.5097 4.30762H224.469C225.298 4.30852 226.092 4.63027 226.677 5.20227C227.263 5.77428 227.592 6.54983 227.593 7.35877V68.0229C227.592 68.8318 227.263 69.6074 226.677 70.1794C226.092 70.7514 225.298 71.0731 224.469 71.074Z" fill="white"/>
<path d="M105.708 87.0602C105.398 87.0594 105.091 86.9987 104.805 86.8818C104.377 86.7141 104.012 86.4244 103.756 86.0505C103.501 85.6767 103.366 85.2361 103.371 84.7865V73.1092L121.389 72.6643L107.335 86.3901C107.123 86.6014 106.87 86.7694 106.59 86.8845C106.311 86.9995 106.011 87.0592 105.708 87.0602Z" fill="#CCCCCC"/>
<path d="M209.255 34.9704H146.04C145.653 34.9709 145.271 34.8971 144.913 34.753C144.556 34.6089 144.232 34.3975 143.958 34.1308C143.685 33.8641 143.468 33.5473 143.32 33.1986C143.172 32.85 143.095 32.4762 143.095 32.0987C143.095 31.7213 143.172 31.3475 143.32 30.9988C143.468 30.6501 143.685 30.3334 143.958 30.0667C144.232 29.7999 144.556 29.5885 144.913 29.4444C145.271 29.3004 145.653 29.2265 146.04 29.2271H209.255C210.035 29.2271 210.782 29.5296 211.334 30.0681C211.885 30.6067 212.195 31.3371 212.195 32.0987C212.195 32.8603 211.885 33.5908 211.334 34.1293C210.782 34.6678 210.035 34.9704 209.255 34.9704Z" fill="#CCCCCC"/>
<path d="M188.673 22.7656H146.04C145.26 22.7656 144.512 22.463 143.961 21.9245C143.409 21.3859 143.1 20.6555 143.1 19.8939C143.1 19.1323 143.409 18.4019 143.961 17.8633C144.512 17.3248 145.26 17.0222 146.04 17.0222H188.673C189.453 17.0222 190.201 17.3248 190.752 17.8633C191.304 18.4019 191.613 19.1323 191.613 19.8939C191.613 20.6555 191.304 21.3859 190.752 21.9245C190.201 22.463 189.453 22.7656 188.673 22.7656Z" fill="#CCCCCC"/>
<path d="M119.872 34.9702C124.946 34.9702 129.06 30.9524 129.06 25.9962C129.06 21.04 124.946 17.0222 119.872 17.0222C114.797 17.0222 110.683 21.04 110.683 25.9962C110.683 30.9524 114.797 34.9702 119.872 34.9702Z" fill="#4A66F8"/>
<path d="M189.774 58.3591C191.398 58.3591 192.714 57.0734 192.714 55.4874C192.714 53.9014 191.398 52.6157 189.774 52.6157C188.15 52.6157 186.833 53.9014 186.833 55.4874C186.833 57.0734 188.15 58.3591 189.774 58.3591Z" fill="#E6E6E6"/>
<path d="M200.065 58.3591C201.688 58.3591 203.005 57.0734 203.005 55.4874C203.005 53.9014 201.688 52.6157 200.065 52.6157C198.441 52.6157 197.124 53.9014 197.124 55.4874C197.124 57.0734 198.441 58.3591 200.065 58.3591Z" fill="#E6E6E6"/>
<path d="M210.355 58.3591C211.979 58.3591 213.295 57.0734 213.295 55.4874C213.295 53.9014 211.979 52.6157 210.355 52.6157C208.731 52.6157 207.415 53.9014 207.415 55.4874C207.415 57.0734 208.731 58.3591 210.355 58.3591Z" fill="#E6E6E6"/>
<path d="M331.484 119.605H449.936C451.544 119.607 453.085 120.231 454.222 121.341C455.359 122.452 455.998 123.957 456 125.528V297.077C455.998 298.648 455.359 300.153 454.222 301.263C453.085 302.374 451.544 302.998 449.936 303H331.484C329.876 302.998 328.335 302.374 327.198 301.263C326.061 300.153 325.422 298.648 325.42 297.077V125.528C325.422 123.957 326.061 122.452 327.198 121.341C328.335 120.231 329.876 119.607 331.484 119.605Z" fill="#F2F2F2"/>
<path d="M332.954 123.912H448.466C449.294 123.913 450.088 124.235 450.674 124.807C451.259 125.379 451.589 126.154 451.59 126.963V295.641C451.589 296.45 451.259 297.226 450.674 297.798C450.088 298.37 449.294 298.691 448.466 298.692H332.954C332.126 298.691 331.332 298.37 330.746 297.798C330.161 297.226 329.831 296.45 329.83 295.641V126.963C329.831 126.154 330.161 125.379 330.746 124.807C331.332 124.235 332.126 123.913 332.954 123.912Z" fill="white"/>
<path d="M336.46 206.46H208.56C206.952 206.458 205.411 205.833 204.274 204.723C203.137 203.613 202.497 202.107 202.496 200.537V137.001C202.497 135.431 203.137 133.925 204.274 132.815C205.411 131.705 206.952 131.08 208.56 131.078H336.46C338.067 131.08 339.609 131.705 340.746 132.815C341.883 133.925 342.522 135.431 342.524 137.001V200.537C342.522 202.107 341.883 203.613 340.746 204.723C339.609 205.833 338.067 206.458 336.46 206.46Z" fill="#CCCCCC"/>
<path d="M334.989 202.152H210.03C209.202 202.151 208.408 201.83 207.822 201.258C207.236 200.686 206.907 199.91 206.906 199.101V138.437C206.907 137.628 207.236 136.853 207.822 136.281C208.408 135.709 209.202 135.387 210.03 135.386H334.989C335.818 135.387 336.612 135.709 337.197 136.281C337.783 136.853 338.113 137.628 338.113 138.437V199.101C338.113 199.91 337.783 200.686 337.197 201.258C336.612 201.83 335.818 202.151 334.989 202.152Z" fill="white"/>
<path d="M327.753 217.469L313.699 203.743L331.717 204.188V215.865C331.721 216.315 331.587 216.755 331.331 217.129C331.076 217.503 330.71 217.792 330.283 217.96C329.997 218.077 329.69 218.138 329.38 218.139C329.077 218.138 328.777 218.078 328.498 217.963C328.218 217.848 327.965 217.68 327.753 217.469Z" fill="#CCCCCC"/>
<path d="M319.775 166.049H256.56C256.174 166.049 255.791 165.975 255.434 165.831C255.076 165.687 254.752 165.476 254.478 165.209C254.205 164.942 253.988 164.626 253.84 164.277C253.692 163.928 253.616 163.555 253.616 163.177C253.616 162.8 253.692 162.426 253.84 162.077C253.988 161.728 254.205 161.412 254.478 161.145C254.752 160.878 255.076 160.667 255.434 160.523C255.791 160.379 256.174 160.305 256.56 160.305H319.775C320.161 160.305 320.544 160.379 320.901 160.523C321.259 160.667 321.583 160.878 321.857 161.145C322.13 161.412 322.347 161.728 322.495 162.077C322.643 162.426 322.719 162.8 322.719 163.177C322.719 163.555 322.643 163.928 322.495 164.277C322.347 164.626 322.13 164.942 321.857 165.209C321.583 165.476 321.259 165.687 320.901 165.831C320.544 165.975 320.161 166.049 319.775 166.049Z" fill="#CCCCCC"/>
<path d="M299.193 153.844H256.56C256.174 153.844 255.792 153.77 255.435 153.625C255.078 153.481 254.754 153.269 254.481 153.003C254.208 152.736 253.991 152.42 253.844 152.071C253.696 151.723 253.62 151.349 253.62 150.972C253.62 150.595 253.696 150.222 253.844 149.873C253.991 149.525 254.208 149.208 254.481 148.942C254.754 148.675 255.078 148.463 255.435 148.319C255.792 148.175 256.174 148.101 256.56 148.101H299.193C299.973 148.101 300.721 148.403 301.272 148.942C301.824 149.48 302.134 150.211 302.134 150.972C302.134 151.734 301.824 152.464 301.272 153.003C300.721 153.541 299.973 153.844 299.193 153.844Z" fill="#CCCCCC"/>
<path d="M230.392 166.049C235.466 166.049 239.58 162.031 239.58 157.075C239.58 152.118 235.466 148.101 230.392 148.101C225.317 148.101 221.204 152.118 221.204 157.075C221.204 162.031 225.317 166.049 230.392 166.049Z" fill="#4A66F8"/>
<path d="M300.294 189.437C301.918 189.437 303.234 188.152 303.234 186.566C303.234 184.98 301.918 183.694 300.294 183.694C298.67 183.694 297.354 184.98 297.354 186.566C297.354 188.152 298.67 189.437 300.294 189.437Z" fill="#E6E6E6"/>
<path d="M310.585 189.437C312.209 189.437 313.525 188.152 313.525 186.566C313.525 184.98 312.209 183.694 310.585 183.694C308.961 183.694 307.644 184.98 307.644 186.566C307.644 188.152 308.961 189.437 310.585 189.437Z" fill="#E6E6E6"/>
<path d="M320.876 189.437C322.499 189.437 323.816 188.152 323.816 186.566C323.816 184.98 322.499 183.694 320.876 183.694C319.252 183.694 317.935 184.98 317.935 186.566C317.935 188.152 319.252 189.437 320.876 189.437Z" fill="#E6E6E6"/>
<path d="M337.865 244.915C338.374 244.163 339.045 243.528 339.833 243.057C340.62 242.585 341.503 242.288 342.421 242.186C343.339 242.084 344.268 242.179 345.144 242.466C346.019 242.753 346.82 243.224 347.489 243.845L367.438 233.789L366.198 245.118L347.444 252.931C346.301 253.96 344.81 254.543 343.256 254.57C341.701 254.598 340.19 254.067 339.009 253.079C337.828 252.091 337.06 250.714 336.849 249.21C336.638 247.705 336.999 246.177 337.865 244.915Z" fill="#FFB8B8"/>
<path d="M399.979 194.547C398.431 193.364 396.534 192.702 394.569 192.659C392.605 192.616 390.679 193.194 389.079 194.308C388.357 194.814 387.712 195.417 387.163 196.099L369.648 227.827L353.484 239.755C352.948 240.149 352.574 240.717 352.428 241.357C352.318 241.826 352.338 242.315 352.485 242.774L354.074 247.781C354.244 248.319 354.577 248.794 355.029 249.143C355.206 249.272 355.395 249.383 355.595 249.474C355.619 249.487 355.644 249.497 355.67 249.505C356.022 249.653 356.402 249.728 356.786 249.727C357.169 249.726 357.549 249.649 357.9 249.499L376.847 241.473L377.055 241.381C383.441 238.621 388.598 233.71 391.586 227.545L401.549 207.009C403.026 205.15 403.689 202.796 403.395 200.461C403.101 198.126 401.873 196 399.979 194.547Z" fill="#3F3D56"/>
<path d="M401.986 182.855C410.508 182.855 417.416 176.108 417.416 167.785C417.416 159.462 410.508 152.715 401.986 152.715C393.465 152.715 386.557 159.462 386.557 167.785C386.557 176.108 393.465 182.855 401.986 182.855Z" fill="#FFB8B8"/>
<path d="M412.43 268.562L412.273 267.391L411.544 262.046L410.746 256.211L407.913 256.684L406.82 256.862L405.715 257.046L405.35 257.107L377.243 261.77L373.744 259.715L373.669 259.672L373.7 259.985L374.36 266.667L377.507 298.585H416.532L412.43 268.562Z" fill="#2F2E41"/>
<path d="M423.235 207.248C422.735 201.782 420.09 196.716 415.854 193.111C411.777 189.584 406.433 187.784 400.996 188.104C395.813 188.442 391.831 190.522 389.079 194.307C387.663 196.334 386.618 198.584 385.988 200.959C382.859 211.954 379.561 228.06 377.055 241.381C375.647 248.818 374.492 255.389 373.744 259.715C373.732 259.807 373.719 259.893 373.7 259.985C373.411 261.672 373.191 262.991 373.047 263.869C372.955 264.41 373.031 264.965 373.265 265.464C373.499 265.962 373.88 266.381 374.36 266.667C374.366 266.673 374.378 266.679 374.385 266.685C377.556 268.538 381.175 269.531 384.87 269.563C389.343 269.563 394.708 268.041 400.356 263.126C400.739 262.786 401.233 262.588 401.751 262.567C402.268 262.545 402.777 262.702 403.189 263.01L403.805 263.476L409.886 268.096C410.361 268.459 410.942 268.663 411.544 268.679C411.844 268.692 412.144 268.653 412.43 268.562C412.456 268.559 412.481 268.553 412.505 268.544C412.944 268.405 413.34 268.162 413.66 267.838C413.98 267.514 414.214 267.118 414.34 266.685C414.679 265.531 415.056 264.2 415.471 262.715C415.64 262.095 415.816 261.445 415.998 260.77C416.796 257.788 417.682 254.327 418.549 250.56C421.577 237.393 424.454 220.476 423.235 207.248Z" fill="#3F3D56"/>
<path d="M397.826 270.137C397.751 269.238 397.879 268.334 398.2 267.488C398.522 266.642 399.029 265.876 399.687 265.243C400.344 264.609 401.136 264.124 402.006 263.822C402.876 263.52 403.804 263.408 404.723 263.494L414.066 243.557L420.249 253.219L410.429 270.67C410.179 272.169 409.375 273.526 408.168 274.485C406.962 275.443 405.438 275.936 403.885 275.871C402.331 275.805 400.857 275.185 399.74 274.128C398.623 273.071 397.942 271.651 397.826 270.137Z" fill="#FFB8B8"/>
<path d="M429.122 224.091L423.983 201.922C423.97 199.735 423.135 197.629 421.636 196.005C420.137 194.38 418.079 193.35 415.854 193.111C415.534 193.08 415.207 193.062 414.874 193.062C413.674 193.065 412.486 193.299 411.379 193.751C410.272 194.203 409.267 194.863 408.422 195.695C407.576 196.526 406.907 197.512 406.452 198.597C405.997 199.681 405.766 200.842 405.771 202.014L412.041 237.534L412.022 237.608L408.699 249.861L406.858 256.665C406.839 256.729 406.826 256.795 406.82 256.862C406.702 257.433 406.78 258.025 407.04 258.549C407.249 258.989 407.574 259.366 407.982 259.641L411.544 262.046L412.392 262.623C412.864 262.944 413.426 263.116 414.001 263.114C414.223 263.114 414.444 263.089 414.66 263.04C414.685 263.034 414.704 263.028 414.729 263.022C414.99 262.956 415.24 262.852 415.471 262.715C415.899 262.462 416.25 262.102 416.489 261.672L426.326 243.934C429.687 237.868 430.68 230.817 429.122 224.091Z" fill="#3F3D56"/>
<path opacity="0.2" d="M407.022 216.992L412.676 240.308L404.509 259.943L410.163 240.922L407.022 216.992Z" fill="black"/>
<path d="M414.474 176.842C415.767 176.392 416.956 175.696 417.972 174.794C418.421 174.403 418.904 174.039 419.352 173.648C423.308 170.191 424.497 164.248 422.732 159.358C420.966 154.469 416.576 150.711 411.559 149.017C406.542 147.323 400.981 147.554 395.887 149.012C390.4 150.583 384.905 154.118 383.602 159.556C383.255 161.003 383.242 162.609 384.251 163.83C384.554 164.199 384.951 164.483 385.403 164.655C387.181 165.321 388.172 163.962 389.499 163.385C391.323 162.591 393.568 163.448 394.838 164.953C396.108 166.458 396.578 168.458 396.773 170.399C396.812 171.595 397.004 172.782 397.345 173.933C397.522 174.507 397.847 175.028 398.288 175.445C398.728 175.863 399.271 176.163 399.865 176.319C401.296 176.577 402.672 175.614 403.573 174.497C404.473 173.38 405.112 172.054 406.176 171.084C407.24 170.114 408.976 169.602 410.142 170.452C410.533 170.774 410.862 171.161 411.116 171.594C412.904 174.276 412.686 174.16 414.474 176.842Z" fill="#2F2E41"/>
<path d="M340.581 232.013L329.696 236.796C329.24 236.997 328.884 237.366 328.707 237.822C328.53 238.278 328.545 238.785 328.75 239.23L330.039 242.028C329.888 242.095 329.769 242.218 329.71 242.37C329.651 242.522 329.656 242.691 329.724 242.839L330.24 243.958C330.308 244.106 330.434 244.222 330.59 244.28C330.746 244.337 330.918 244.332 331.07 244.266L331.586 245.385C331.434 245.452 331.316 245.575 331.257 245.728C331.198 245.88 331.203 246.048 331.271 246.197L331.786 247.316C331.855 247.464 331.981 247.579 332.137 247.637C332.292 247.695 332.465 247.69 332.617 247.624L339.576 262.731C339.781 263.177 340.159 263.524 340.626 263.697C341.094 263.87 341.612 263.855 342.068 263.655L352.954 258.872C353.409 258.671 353.765 258.302 353.942 257.846C354.12 257.39 354.104 256.883 353.899 256.438L343.073 232.937C342.868 232.491 342.49 232.144 342.023 231.971C341.556 231.798 341.037 231.813 340.581 232.013Z" fill="#3F3D56"/>
<path d="M351.882 255.052L350.349 251.72L346.328 242.995L342.798 235.331C342.602 234.904 342.24 234.571 341.792 234.404C341.345 234.237 340.848 234.251 340.41 234.442L334.417 237.074L331.672 238.283C331.236 238.476 330.897 238.829 330.727 239.266C330.558 239.703 330.572 240.188 330.767 240.614L334.417 248.542L335.818 251.579L339.851 260.341C340.05 260.767 340.413 261.099 340.862 261.264C341.31 261.43 341.807 261.415 342.245 261.224L350.977 257.383C351.413 257.191 351.753 256.837 351.922 256.4C352.092 255.963 352.077 255.478 351.882 255.052Z" fill="#4A66F8"/>
</g>
<defs>
<clipPath id="clip0_31_62">
<rect width="456" height="303" fill="white"/>
</clipPath>
</defs>
</svg>
